# xmcd CD database file
#
# Track frame offsets:
#	150
#	19512
#	31986
#	51052
#	66273
#	82687
#	99166
#	111566
#	128415
#	144940
#	158289
#	166406
#
# Disc length: 2449 seconds
#
# Revision: 0
# Processed by: cddbd v1.5.2PL0 Copyright (c) Steve Scherf et al.
# Submitted via: CDex 2.05
#
DISCID=82098f0c
DTITLE=8 Ball Aitken - Swamp Blues
DYEAR=2018
DGENRE=Blues
TTITLE0=Apple Tree
TTITLE1=Lindy Loo
TTITLE2=Six Stringer
TTITLE3=Iron Horse
TTITLE4=High Water
TTITLE5=Sugar In My Coffee
TTITLE6=Drop On By
TTITLE7=Mama's Cookin
TTITLE8=Say You Love Me
TTITLE9=Sweet As You
TTITLE10=Drunk And Stoned
TTITLE11=Love Makes The World Go Round
EXTD=YEAR: 2018
EXTT0=
EXTT1=
EXTT2=
EXTT3=
EXTT4=
EXTT5=
EXTT6=
EXTT7=
EXTT8=
EXTT9=
EXTT10=
EXTT11=
PLAYORDER=
